<svg xmlns="http://www.w3.org/2000/svg" width="224.88" viewBox="0 0 224.88 75" height="75" version="1.0"><defs><clipPath id="a"><path d="M 87.199219 7.710938 L 126 7.710938 L 126 26 L 87.199219 26 Z M 87.199219 7.710938"/></clipPath><clipPath id="b"><path d="M 103.589844 7.710938 L 133.648438 7.710938 L 133.648438 33.949219 L 103.589844 33.949219 Z M 103.589844 7.710938"/></clipPath><clipPath id="c"><path d="M 103 7.710938 L 118 7.710938 L 118 18 L 103 18 Z M 103 7.710938"/></clipPath></defs><g fill="#FFF"><g><g><path d="M 18.566406 -19.417969 L 16.472656 -19.417969 C 16.257812 -19.417969 15.8125 -19.347656 15.8125 -18.59375 L 15.8125 -4.429688 C 15.8125 -4.40625 15.8125 -4.40625 15.8125 -4.382812 L 15.695312 -4.382812 C 15.671875 -4.382812 15.644531 -4.382812 15.621094 -4.453125 L 8.175781 -17.695312 C 7.988281 -18.050781 7.824219 -18.332031 7.660156 -18.542969 C 7.492188 -18.78125 7.328125 -18.96875 7.164062 -19.085938 C 6.976562 -19.226562 6.761719 -19.324219 6.503906 -19.371094 C 6.269531 -19.394531 5.984375 -19.417969 5.679688 -19.417969 L 3.910156 -19.417969 C 3.226562 -19.417969 2.710938 -19.179688 2.378906 -18.757812 C 2.050781 -18.308594 1.886719 -17.53125 1.886719 -16.375 L 1.886719 -0.800781 C 1.886719 -0.0703125 2.355469 0.0234375 2.570312 0.0234375 L 4.664062 0.0234375 C 4.878906 0.0234375 5.324219 -0.0703125 5.324219 -0.800781 L 5.324219 -14.964844 C 5.324219 -14.988281 5.324219 -15.011719 5.324219 -15.011719 L 5.441406 -15.011719 C 5.441406 -15.011719 5.46875 -15.011719 5.515625 -14.941406 L 12.984375 -1.695312 C 13.171875 -1.320312 13.359375 -1.035156 13.527344 -0.824219 C 13.691406 -0.589844 13.855469 -0.425781 14.042969 -0.304688 C 14.234375 -0.164062 14.445312 -0.09375 14.679688 -0.046875 C 14.890625 0 15.152344 0.0234375 15.480469 0.0234375 L 17.203125 0.0234375 C 17.886719 0.0234375 18.402344 -0.210938 18.734375 -0.660156 C 19.0625 -1.082031 19.226562 -1.863281 19.226562 -3.015625 L 19.226562 -18.59375 C 19.226562 -19.347656 18.757812 -19.417969 18.566406 -19.417969 Z M 18.566406 -19.417969" transform="translate(15.865 59.271)"/></g></g></g><g fill="#FFF"><g><g><path d="M 18.167969 -19.417969 L 16 -19.417969 C 15.789062 -19.417969 15.339844 -19.347656 15.339844 -18.617188 L 15.339844 -7 C 15.339844 -6.292969 15.292969 -5.679688 15.222656 -5.230469 C 15.152344 -4.785156 15.011719 -4.429688 14.84375 -4.171875 C 14.65625 -3.933594 14.445312 -3.769531 14.136719 -3.652344 C 13.832031 -3.558594 13.40625 -3.488281 12.914062 -3.488281 L 7.824219 -3.488281 C 7.328125 -3.488281 6.902344 -3.558594 6.597656 -3.652344 C 6.292969 -3.769531 6.078125 -3.933594 5.890625 -4.171875 C 5.726562 -4.429688 5.585938 -4.785156 5.492188 -5.230469 C 5.417969 -5.679688 5.371094 -6.292969 5.371094 -7 L 5.371094 -18.617188 C 5.371094 -19.347656 4.925781 -19.417969 4.710938 -19.417969 L 2.570312 -19.417969 C 2.355469 -19.417969 1.886719 -19.347656 1.886719 -18.617188 L 1.886719 -7.375 C 1.886719 -6.054688 1.980469 -4.925781 2.191406 -4.007812 C 2.402344 -3.0625 2.757812 -2.285156 3.226562 -1.695312 C 3.675781 -1.082031 4.3125 -0.660156 5.042969 -0.378906 C 5.773438 -0.117188 6.667969 0 7.707031 0 L 13.007812 0 C 14.042969 0 14.941406 -0.117188 15.671875 -0.378906 C 16.425781 -0.660156 17.035156 -1.082031 17.507812 -1.695312 C 17.980469 -2.285156 18.308594 -3.0625 18.519531 -4.007812 C 18.734375 -4.925781 18.828125 -6.054688 18.828125 -7.375 L 18.828125 -18.617188 C 18.828125 -19.347656 18.378906 -19.417969 18.167969 -19.417969 Z M 18.167969 -19.417969" transform="translate(38.153 59.271)"/></g></g></g><g fill="#FFF"><g><g><path d="M 18.167969 -19.417969 L 2.570312 -19.417969 C 2.355469 -19.417969 1.886719 -19.347656 1.886719 -18.617188 L 1.886719 -16.777344 C 1.886719 -16 2.355469 -15.929688 2.570312 -15.929688 L 8.625 -15.929688 L 8.625 -0.800781 C 8.625 -0.0703125 9.09375 0 9.285156 0 L 11.453125 0 C 11.664062 0 12.113281 -0.0703125 12.113281 -0.800781 L 12.113281 -15.929688 L 18.167969 -15.929688 C 18.378906 -15.929688 18.851562 -16 18.851562 -16.777344 L 18.851562 -18.617188 C 18.851562 -19.347656 18.378906 -19.417969 18.167969 -19.417969 Z M 18.167969 -19.417969" transform="translate(60.04 59.271)"/></g></g></g><g fill="#FFF"><g><g><path d="M 17.957031 -13.785156 C 17.957031 -13.761719 17.957031 -13.738281 17.957031 -13.714844 C 17.957031 -13.691406 17.957031 -13.667969 17.957031 -13.644531 Z M 18.402344 -1.011719 L 14.28125 -8.082031 C 15.433594 -8.222656 16.328125 -8.71875 16.917969 -9.519531 C 17.578125 -10.484375 17.933594 -11.875 17.957031 -13.714844 C 17.933594 -15.550781 17.578125 -16.941406 16.917969 -17.910156 C 16.210938 -18.921875 15.035156 -19.417969 13.429688 -19.417969 L 2.570312 -19.417969 C 2.355469 -19.417969 1.886719 -19.347656 1.886719 -18.59375 L 1.886719 -16.730469 C 1.886719 -16 2.355469 -15.929688 2.570312 -15.929688 L 12.820312 -15.929688 C 13.429688 -15.929688 13.832031 -15.765625 14.066406 -15.410156 C 14.328125 -15.058594 14.445312 -14.492188 14.445312 -13.714844 C 14.445312 -12.9375 14.328125 -12.371094 14.066406 -12.019531 C 13.832031 -11.664062 13.429688 -11.5 12.820312 -11.5 L 2.570312 -11.5 C 2.355469 -11.5 1.886719 -11.429688 1.886719 -10.699219 L 1.886719 -0.800781 C 1.886719 -0.0703125 2.355469 0.0234375 2.570312 0.0234375 L 4.710938 0.0234375 C 4.925781 0.0234375 5.371094 -0.0703125 5.371094 -0.800781 L 5.371094 -8.011719 L 10.34375 -8.011719 L 14.609375 -0.449219 C 14.703125 -0.304688 14.773438 -0.1875 14.867188 -0.117188 C 14.988281 -0.0234375 15.152344 0.0234375 15.363281 0.0234375 L 17.957031 0.0234375 C 18.238281 0.0234375 18.449219 -0.164062 18.496094 -0.449219 C 18.519531 -0.683594 18.496094 -0.871094 18.402344 -1.011719 Z M 18.402344 -1.011719" transform="translate(81.951 59.271)"/></g></g></g><g fill="#FFF"><g><g><path d="M 4.710938 -19.417969 L 2.542969 -19.417969 C 2.355469 -19.417969 1.886719 -19.324219 1.886719 -18.59375 L 1.886719 -0.800781 C 1.886719 -0.0703125 2.355469 0.0234375 2.542969 0.0234375 L 4.710938 0.0234375 C 4.902344 0.0234375 5.371094 -0.0703125 5.371094 -0.800781 L 5.371094 -18.59375 C 5.371094 -19.324219 4.902344 -19.417969 4.710938 -19.417969 Z M 4.710938 -19.417969" transform="translate(103.532 59.271)"/></g></g></g><g fill="#FFF"><g><g><path d="M 17.835938 -19.417969 L 7.707031 -19.417969 C 6.667969 -19.417969 5.773438 -19.273438 5.042969 -19.015625 C 4.3125 -18.734375 3.675781 -18.285156 3.226562 -17.695312 C 2.757812 -17.082031 2.402344 -16.328125 2.191406 -15.386719 C 1.980469 -14.46875 1.886719 -13.335938 1.886719 -12.042969 L 1.886719 -7.375 C 1.886719 -6.054688 1.980469 -4.925781 2.191406 -3.980469 C 2.402344 -3.0625 2.757812 -2.285156 3.226562 -1.671875 C 3.699219 -1.082031 4.3125 -0.636719 5.042969 -0.378906 C 5.773438 -0.117188 6.667969 0.0234375 7.707031 0.0234375 L 15.765625 0.0234375 C 16.636719 0.0234375 17.320312 -0.328125 17.789062 -1.011719 C 18.238281 -1.671875 18.472656 -2.78125 18.472656 -4.359375 L 18.472656 -10.675781 C 18.472656 -11.570312 17.957031 -11.710938 17.648438 -11.710938 L 9.308594 -11.710938 C 9.121094 -11.710938 8.648438 -11.617188 8.648438 -10.863281 L 8.648438 -9.070312 C 8.648438 -8.292969 9.121094 -8.222656 9.308594 -8.222656 L 15.175781 -8.222656 C 15.175781 -8.222656 15.199219 -4.925781 15.199219 -4.925781 C 15.199219 -4.195312 15.082031 -3.886719 14.988281 -3.746094 C 14.867188 -3.558594 14.679688 -3.488281 14.421875 -3.488281 L 7.824219 -3.488281 C 7.328125 -3.488281 6.902344 -3.535156 6.597656 -3.652344 C 6.292969 -3.746094 6.078125 -3.910156 5.890625 -4.171875 C 5.726562 -4.40625 5.585938 -4.761719 5.515625 -5.207031 C 5.417969 -5.679688 5.371094 -6.269531 5.371094 -6.976562 L 5.371094 -12.441406 C 5.371094 -13.148438 5.417969 -13.738281 5.515625 -14.210938 C 5.585938 -14.632812 5.726562 -14.988281 5.890625 -15.246094 C 6.078125 -15.480469 6.292969 -15.644531 6.597656 -15.765625 C 6.902344 -15.859375 7.328125 -15.929688 7.824219 -15.929688 L 17.835938 -15.929688 C 18.027344 -15.929688 18.496094 -16 18.496094 -16.753906 L 18.496094 -18.59375 C 18.496094 -19.324219 18.027344 -19.417969 17.835938 -19.417969 Z M 17.835938 -19.417969" transform="translate(111.967 59.271)"/></g></g></g><g fill="#FFF"><g><g><path d="M 14.515625 -17.226562 C 14.46875 -17.34375 14.421875 -17.484375 14.375 -17.578125 C 13.996094 -18.804688 12.867188 -19.675781 11.570312 -19.675781 C 10.980469 -19.675781 10.414062 -19.511719 9.945312 -19.179688 C 9.800781 -19.109375 9.683594 -19.015625 9.589844 -18.945312 C 9.238281 -18.640625 8.882812 -18.074219 8.554688 -17.226562 L 1.980469 -0.894531 C 1.910156 -0.683594 1.886719 -0.472656 1.933594 -0.328125 C 1.957031 -0.1875 2.074219 0.0234375 2.449219 0.0234375 L 5.042969 0.0234375 C 5.347656 0.0234375 5.585938 -0.164062 5.703125 -0.472656 L 7.046875 -3.839844 L 12.207031 -3.839844 C 12.464844 -3.839844 12.699219 -3.957031 12.820312 -4.171875 C 12.960938 -4.359375 12.984375 -4.617188 12.914062 -4.855469 L 12.066406 -6.953125 C 11.945312 -7.234375 11.6875 -7.421875 11.382812 -7.421875 L 8.460938 -7.421875 L 11.476562 -15.058594 C 11.5 -15.105469 11.523438 -15.128906 11.523438 -15.128906 L 11.617188 -15.128906 C 11.617188 -15.128906 11.617188 -15.128906 11.640625 -15.082031 L 17.484375 -0.496094 C 17.601562 -0.164062 17.835938 0.0234375 18.167969 0.0234375 L 20.6875 0.0234375 C 21.066406 0.0234375 21.160156 -0.210938 21.207031 -0.328125 C 21.253906 -0.472656 21.230469 -0.683594 21.136719 -0.894531 Z M 14.515625 -17.226562" transform="translate(133.524 59.271)"/></g></g></g><g fill="#FFF"><g><g><path d="M 4.710938 -19.417969 L 2.542969 -19.417969 C 2.355469 -19.417969 1.886719 -19.324219 1.886719 -18.59375 L 1.886719 -0.800781 C 1.886719 -0.0703125 2.355469 0.0234375 2.542969 0.0234375 L 4.710938 0.0234375 C 4.902344 0.0234375 5.371094 -0.0703125 5.371094 -0.800781 L 5.371094 -18.59375 C 5.371094 -19.324219 4.902344 -19.417969 4.710938 -19.417969 Z M 4.710938 -19.417969" transform="translate(157.838 59.271)"/></g></g></g><g fill="#FFF"><g><g><path d="M 18.566406 -19.417969 L 16.472656 -19.417969 C 16.257812 -19.417969 15.8125 -19.347656 15.8125 -18.59375 L 15.8125 -4.429688 C 15.8125 -4.40625 15.8125 -4.40625 15.8125 -4.382812 L 15.695312 -4.382812 C 15.671875 -4.382812 15.644531 -4.382812 15.621094 -4.453125 L 8.175781 -17.695312 C 7.988281 -18.050781 7.824219 -18.332031 7.660156 -18.542969 C 7.492188 -18.78125 7.328125 -18.96875 7.164062 -19.085938 C 6.976562 -19.226562 6.761719 -19.324219 6.503906 -19.371094 C 6.269531 -19.394531 5.984375 -19.417969 5.679688 -19.417969 L 3.910156 -19.417969 C 3.226562 -19.417969 2.710938 -19.179688 2.378906 -18.757812 C 2.050781 -18.308594 1.886719 -17.53125 1.886719 -16.375 L 1.886719 -0.800781 C 1.886719 -0.0703125 2.355469 0.0234375 2.570312 0.0234375 L 4.664062 0.0234375 C 4.878906 0.0234375 5.324219 -0.0703125 5.324219 -0.800781 L 5.324219 -14.964844 C 5.324219 -14.988281 5.324219 -15.011719 5.324219 -15.011719 L 5.441406 -15.011719 C 5.441406 -15.011719 5.46875 -15.011719 5.515625 -14.941406 L 12.984375 -1.695312 C 13.171875 -1.320312 13.359375 -1.035156 13.527344 -0.824219 C 13.691406 -0.589844 13.855469 -0.425781 14.042969 -0.304688 C 14.234375 -0.164062 14.445312 -0.09375 14.679688 -0.046875 C 14.890625 0 15.152344 0.0234375 15.480469 0.0234375 L 17.203125 0.0234375 C 17.886719 0.0234375 18.402344 -0.210938 18.734375 -0.660156 C 19.0625 -1.082031 19.226562 -1.863281 19.226562 -3.015625 L 19.226562 -18.59375 C 19.226562 -19.347656 18.757812 -19.417969 18.566406 -19.417969 Z M 18.566406 -19.417969" transform="translate(166.273 59.271)"/></g></g></g><g fill="#FFF"><g><g><path d="M 15.597656 -19.417969 L 2.664062 -19.417969 C 2.472656 -19.417969 2.003906 -19.347656 2.003906 -18.617188 L 2.003906 -16.730469 C 2.003906 -16 2.472656 -15.929688 2.664062 -15.929688 L 13.832031 -15.929688 C 13.878906 -15.929688 13.902344 -15.90625 13.902344 -15.859375 L 13.902344 -15.128906 C 13.902344 -15.105469 13.902344 -15.082031 13.878906 -15.082031 L 2.898438 -7.164062 C 2.6875 -7.023438 2.519531 -6.878906 2.402344 -6.738281 C 2.261719 -6.597656 2.144531 -6.410156 2.074219 -6.222656 C 2.003906 -6.03125 1.957031 -5.820312 1.910156 -5.5625 C 1.886719 -5.347656 1.886719 -5.089844 1.886719 -4.761719 L 1.886719 -2.238281 C 1.886719 -1.507812 2.003906 -0.964844 2.285156 -0.589844 C 2.570312 -0.1875 3.039062 0 3.675781 0 L 16.613281 0 C 16.800781 0 17.273438 -0.0703125 17.273438 -0.800781 L 17.273438 -2.6875 C 17.273438 -3.417969 16.800781 -3.488281 16.613281 -3.488281 L 5.441406 -3.488281 C 5.394531 -3.488281 5.371094 -3.535156 5.371094 -3.558594 L 5.371094 -4.335938 C 5.371094 -4.359375 5.371094 -4.382812 5.394531 -4.382812 L 16.304688 -12.230469 C 16.519531 -12.371094 16.683594 -12.511719 16.824219 -12.652344 C 16.964844 -12.796875 17.082031 -12.960938 17.179688 -13.171875 C 17.25 -13.359375 17.320312 -13.574219 17.34375 -13.808594 C 17.367188 -14.019531 17.390625 -14.234375 17.390625 -14.539062 L 17.390625 -17.15625 C 17.390625 -19.039062 16.425781 -19.417969 15.597656 -19.417969 Z M 15.597656 -19.417969" transform="translate(188.56 59.271)"/></g></g></g><path fill="#5AC45B" d="M 108.933594 18.566406 L 102.785156 12.445312 C 102.667969 12.328125 102.496094 12.25 102.3125 12.25 C 102.144531 12.25 101.976562 12.316406 101.84375 12.445312 L 95.695312 18.566406 C 95.578125 18.683594 95.5 18.851562 95.5 19.035156 C 95.5 19.203125 95.5625 19.371094 95.695312 19.5 L 101.84375 25.621094 C 101.960938 25.738281 102.132812 25.816406 102.3125 25.816406 C 102.484375 25.816406 102.652344 25.75 102.785156 25.621094 L 108.933594 19.5 C 109.195312 19.242188 109.195312 18.824219 108.933594 18.566406"/><g clip-path="url(#a)"><path fill="#5AC45B" d="M 100.945312 10.914062 C 100.945312 10.875 100.945312 10.835938 100.933594 10.796875 L 100.933594 10.785156 C 100.933594 10.746094 100.921875 10.71875 100.90625 10.679688 C 100.90625 10.679688 100.90625 10.667969 100.894531 10.667969 C 100.882812 10.644531 100.867188 10.605469 100.855469 10.578125 L 100.839844 10.566406 C 100.828125 10.539062 100.800781 10.5 100.777344 10.472656 C 100.765625 10.460938 100.75 10.449219 100.738281 10.433594 C 98.964844 8.671875 96.621094 7.710938 94.117188 7.710938 C 91.628906 7.710938 89.28125 8.671875 87.511719 10.421875 L 87.496094 10.433594 C 87.484375 10.449219 87.457031 10.472656 87.445312 10.488281 C 87.238281 10.746094 87.25 11.121094 87.496094 11.355469 L 93.675781 17.488281 C 93.792969 17.605469 93.960938 17.683594 94.144531 17.683594 C 94.3125 17.683594 94.484375 17.621094 94.613281 17.488281 L 100.765625 11.367188 C 100.882812 11.238281 100.945312 11.070312 100.945312 10.914062 Z M 125.289062 18.566406 L 119.140625 12.445312 C 119.019531 12.328125 118.851562 12.25 118.667969 12.25 C 118.5 12.25 118.332031 12.316406 118.199219 12.445312 L 112.050781 18.566406 C 111.933594 18.683594 111.855469 18.851562 111.855469 19.035156 C 111.855469 19.203125 111.917969 19.371094 112.050781 19.5 L 118.199219 25.621094 C 118.316406 25.738281 118.488281 25.816406 118.667969 25.816406 C 118.839844 25.816406 119.007812 25.75 119.140625 25.621094 L 125.289062 19.5 C 125.539062 19.242188 125.539062 18.824219 125.289062 18.566406"/></g><g clip-path="url(#b)"><path fill="#5AC45B" d="M 133.644531 10.824219 C 133.628906 10.757812 133.617188 10.679688 133.589844 10.628906 C 133.578125 10.589844 133.550781 10.550781 133.539062 10.527344 C 133.511719 10.488281 133.488281 10.460938 133.460938 10.433594 C 131.6875 8.671875 129.34375 7.710938 126.839844 7.710938 C 124.339844 7.710938 121.992188 8.683594 120.21875 10.433594 L 120.207031 10.449219 C 120.207031 10.449219 120.207031 10.449219 120.195312 10.460938 C 120.179688 10.472656 120.167969 10.488281 120.167969 10.488281 C 119.960938 10.746094 119.972656 11.121094 120.21875 11.355469 L 126.371094 17.476562 C 126.488281 17.59375 126.65625 17.671875 126.839844 17.671875 C 127.011719 17.671875 127.179688 17.605469 127.308594 17.476562 L 133.460938 11.355469 C 133.605469 11.214844 133.667969 11.03125 133.644531 10.824219 Z M 117.105469 26.699219 L 110.953125 20.578125 C 110.707031 20.332031 110.265625 20.332031 110.015625 20.578125 L 103.863281 26.699219 C 103.605469 26.957031 103.605469 27.371094 103.863281 27.632812 L 110.015625 33.753906 C 110.132812 33.871094 110.304688 33.949219 110.484375 33.949219 C 110.65625 33.949219 110.824219 33.882812 110.953125 33.753906 L 117.105469 27.632812 C 117.222656 27.515625 117.300781 27.347656 117.300781 27.164062 C 117.300781 26.996094 117.234375 26.828125 117.105469 26.699219"/></g><g clip-path="url(#c)"><path fill="#8EE68E" d="M 117.300781 10.824219 C 117.289062 10.757812 117.273438 10.679688 117.25 10.628906 C 117.234375 10.589844 117.210938 10.566406 117.195312 10.527344 C 117.171875 10.488281 117.144531 10.460938 117.117188 10.433594 C 115.347656 8.671875 113 7.710938 110.5 7.710938 C 107.996094 7.710938 105.652344 8.683594 103.878906 10.433594 L 103.863281 10.449219 C 103.863281 10.449219 103.863281 10.449219 103.851562 10.460938 C 103.839844 10.472656 103.828125 10.488281 103.828125 10.488281 C 103.617188 10.746094 103.628906 11.121094 103.878906 11.355469 L 110.027344 17.476562 C 110.148438 17.59375 110.316406 17.671875 110.5 17.671875 C 110.667969 17.671875 110.835938 17.605469 110.96875 17.476562 L 117.117188 11.355469 C 117.25 11.214844 117.3125 11.03125 117.300781 10.824219"/></g></svg>